ffmpeg version 3.4.8-0ubuntu0.2 Copyright (c) 2000-2020 the FFmpeg developers
  built with gcc 7 (Ubuntu 7.5.0-3ubuntu1~18.04)
  configuration: --prefix=/usr --extra-version=0ubuntu0.2 --toolchain=hardened --libdir=/usr/lib/x86_64-linux-gnu --incdir=/usr/include/x86_64-linux-gnu --enable-gpl --disable-stripping --enable-avresample --enable-avisynth --enable-gnutls --enable-ladspa --enable-libass --enable-libbluray --enable-libbs2b --enable-libcaca --enable-libcdio --enable-libflite --enable-libfontconfig --enable-libfreetype --enable-libfribidi --enable-libgme --enable-libgsm --enable-libmp3lame --enable-libmysofa --enable-libopenjpeg --enable-libopenmpt --enable-libopus --enable-libpulse --enable-librubberband --enable-librsvg --enable-libshine --enable-libsnappy --enable-libsoxr --enable-libspeex --enable-libssh --enable-libtheora --enable-libtwolame --enable-libvorbis --enable-libvpx --enable-libwavpack --enable-libwebp --enable-libx265 --enable-libxml2 --enable-libxvid --enable-libzmq --enable-libzvbi --enable-omx --enable-openal --enable-opengl --enable-sdl2 --enable-libdc1394 --enable-libdrm --enable-libiec61883 --enable-chromaprint --enable-frei0r --enable-libopencv --enable-libx264 --enable-shared
  libavutil      55. 78.100 / 55. 78.100
  libavcodec     57.107.100 / 57.107.100
  libavformat    57. 83.100 / 57. 83.100
  libavdevice    57. 10.100 / 57. 10.100
  libavfilter     6.107.100 /  6.107.100
  libavresample   3.  7.  0 /  3.  7.  0
  libswscale      4.  8.100 /  4.  8.100
  libswresample   2.  9.100 /  2.  9.100
  libpostproc    54.  7.100 / 54.  7.100
[rawvideo @ 0x55b48d1cba20] Estimating duration from bitrate, this may be inaccurate
Input #0, rawvideo, from '../../SVC-Encoder-20220109T061506Z-001/SVC-Encoder/Dataset/RollerCoaster/ERP_8x8/tile_yuv/Tile_35_480x240.yuv':
  Duration: 00:00:10.00, start: 0.000000, bitrate: 41472 kb/s
    Stream #0:0: Video: rawvideo (I420 / 0x30323449), yuv420p, 480x240, 41472 kb/s, 30 tbr, 30 tbn, 30 tbc
Stream mapping:
  Stream #0:0 -> #0:0 (rawvideo (native) -> h264 (libx264))
Press [q] to stop, [?] for help
[libx264 @ 0x55b48d1d8c60] using cpu capabilities: MMX2 SSE2Fast LZCNT SSSE3 SSE4.2 AVX
[libx264 @ 0x55b48d1d8c60] profile High, level 2.1
Output #0, rawvideo, to 'RollerCoaster_Tile_35_480x240_x264_QP_32.h264':
  Metadata:
    encoder         : Lavf57.83.100
    Stream #0:0: Video: h264 (libx264), yuv420p, 480x240, q=-1--1, 30 fps, 30 tbn, 30 tbc
    Metadata:
      encoder         : Lavc57.107.100 libx264
    Side data:
      cpb: bitrate max/min/avg: 0/0/0 buffer size: 0 vbv_delay: -1
frame=  228 fps=0.0 q=38.0 PSNR=Y:nan U:nan V:nan *:nan size=      60kB time=00:00:06.16 bitrate=  79.1kbits/s speed=12.3x    frame=  300 fps=0.0 q=38.0 LPSNR=Y:inf U:inf V:inf *:inf size=      91kB time=00:00:09.93 bitrate=  74.8kbits/s speed=14.3x    
video:91kB audio:0kB subtitle:0kB other streams:0kB global headers:0kB muxing overhead: 0.000000%
[libx264 @ 0x55b48d1d8c60] frame I:2     Avg QP:30.15  size:  5309  PSNR Mean Y:40.58 U:45.64 V:47.81 Avg:41.83 Global:41.70
[libx264 @ 0x55b48d1d8c60] frame P:76    Avg QP:31.82  size:   700  PSNR Mean Y:38.97 U:45.67 V:47.47 Avg:40.36 Global:40.33
[libx264 @ 0x55b48d1d8c60] frame B:222   Avg QP:37.47  size:   131  PSNR Mean Y:38.60 U:45.48 V:47.37 Avg:40.00 Global:39.98
[libx264 @ 0x55b48d1d8c60] consecutive B-frames:  1.3%  0.0%  0.0% 98.7%
[libx264 @ 0x55b48d1d8c60] mb I  I16..4: 45.6% 39.7% 14.8%
[libx264 @ 0x55b48d1d8c60] mb P  I16..4:  0.9%  0.4%  0.0%  P16..4: 22.1%  8.7%  2.5%  0.0%  0.0%    skip:65.3%
[libx264 @ 0x55b48d1d8c60] mb B  I16..4:  0.0%  0.0%  0.0%  B16..8: 20.1%  0.6%  0.0%  direct: 0.0%  skip:79.2%  L0:38.4% L1:60.8% BI: 0.8%
[libx264 @ 0x55b48d1d8c60] 8x8 transform intra:36.8% inter:67.9%
[libx264 @ 0x55b48d1d8c60] coded y,uvDC,uvAC intra: 23.1% 31.5% 10.2% inter: 2.3% 1.7% 0.0%
[libx264 @ 0x55b48d1d8c60] i16 v,h,dc,p: 24% 55% 13%  8%
[libx264 @ 0x55b48d1d8c60] i8 v,h,dc,ddl,ddr,vr,hd,vl,hu: 10% 10% 61%  1%  2%  2%  6%  6%  2%
[libx264 @ 0x55b48d1d8c60] i4 v,h,dc,ddl,ddr,vr,hd,vl,hu: 15% 23% 21%  5%  2%  2%  9% 20%  2%
[libx264 @ 0x55b48d1d8c60] i8c dc,h,v,p: 66% 18% 11%  5%
[libx264 @ 0x55b48d1d8c60] Weighted P-Frames: Y:0.0% UV:0.0%
[libx264 @ 0x55b48d1d8c60] ref P L0: 60.1% 21.5% 15.4%  3.1%
[libx264 @ 0x55b48d1d8c60] ref B L0: 85.9% 13.0%  1.1%
[libx264 @ 0x55b48d1d8c60] ref B L1: 89.6% 10.4%
[libx264 @ 0x55b48d1d8c60] PSNR Mean Y:38.703 U:45.529 V:47.396 Avg:40.105 Global:40.077 kb/s:74.32
